<?xml version="1.0" encoding="UTF-8" standalone="no"?>
<!DOCTYPE svg PUBLIC "-//W3C//DTD SVG 1.1//EN"
 "http://www.w3.org/Graphics/SVG/1.1/DTD/svg11.dtd">
<!-- Generated by graphviz version 2.47.3 (20210619.1520)
 -->
<!-- Title: dependencies Pages: 1 -->
<svg width="868pt" height="247pt"
 viewBox="0.00 0.00 868.00 246.80" xmlns="http://www.w3.org/2000/svg" xmlns:xlink="http://www.w3.org/1999/xlink">
<g id="graph0" class="graph" transform="scale(1 1) rotate(0) translate(4 242.8)">
<title>dependencies</title>
<polygon fill="white" stroke="transparent" points="-4,4 -4,-242.8 864,-242.8 864,4 -4,4"/>
<text text-anchor="middle" x="430" y="-8.2" font-family="sans-serif" font-size="14.00">dependencies</text>
<g id="clust1" class="cluster">
<title>cluster_AppModule</title>
<polygon fill="none" stroke="black" stroke-dasharray="1,5" points="8,-32.8 8,-230.8 852,-230.8 852,-32.8 8,-32.8"/>
</g>
<g id="clust7" class="cluster">
<title>cluster_AppModule_imports</title>
<polygon fill="none" stroke="black" points="700,-40.8 700,-92.8 844,-92.8 844,-40.8 700,-40.8"/>
</g>
<g id="clust2" class="cluster">
<title>cluster_AppModule_declarations</title>
<polygon fill="none" stroke="black" points="16,-40.8 16,-92.8 692,-92.8 692,-40.8 16,-40.8"/>
</g>
<g id="clust9" class="cluster">
<title>cluster_AppModule_bootstrap</title>
<polygon fill="none" stroke="black" points="404,-170.8 404,-222.8 528,-222.8 528,-170.8 404,-170.8"/>
</g>
<!-- AppComponent -->
<g id="node1" class="node">
<title>AppComponent</title>
<polygon fill="#ffffb3" stroke="black" points="683.94,-84.8 578.06,-84.8 578.06,-48.8 683.94,-48.8 683.94,-84.8"/>
<text text-anchor="middle" x="631" y="-62.6" font-family="Times,serif" font-size="14.00">AppComponent</text>
</g>
<!-- AppModule -->
<g id="node5" class="node">
<title>AppModule</title>
<polygon fill="#8dd3c7" stroke="black" points="507.66,-149.8 504.66,-153.8 483.66,-153.8 480.66,-149.8 424.34,-149.8 424.34,-113.8 507.66,-113.8 507.66,-149.8"/>
<text text-anchor="middle" x="466" y="-127.6" font-family="Times,serif" font-size="14.00">AppModule</text>
</g>
<!-- AppComponent&#45;&gt;AppModule -->
<g id="edge1" class="edge">
<title>AppComponent&#45;&gt;AppModule</title>
<path fill="none" stroke="black" d="M631,-84.82C631,-102.17 631,-125.8 631,-125.8 631,-125.8 518.06,-125.8 518.06,-125.8"/>
<polygon fill="black" stroke="black" points="518.06,-122.3 508.06,-125.8 518.06,-129.3 518.06,-122.3"/>
</g>
<!-- LoginApplyForJobComponent -->
<g id="node2" class="node">
<title>LoginApplyForJobComponent</title>
<polygon fill="#ffffb3" stroke="black" points="560.16,-84.8 371.84,-84.8 371.84,-48.8 560.16,-48.8 560.16,-84.8"/>
<text text-anchor="middle" x="466" y="-62.6" font-family="Times,serif" font-size="14.00">LoginApplyForJobComponent</text>
</g>
<!-- LoginApplyForJobComponent&#45;&gt;AppModule -->
<g id="edge2" class="edge">
<title>LoginApplyForJobComponent&#45;&gt;AppModule</title>
<path fill="none" stroke="black" d="M466,-84.91C466,-84.91 466,-103.79 466,-103.79"/>
<polygon fill="black" stroke="black" points="462.5,-103.79 466,-113.79 469.5,-103.79 462.5,-103.79"/>
</g>
<!-- LoginComponent -->
<g id="node3" class="node">
<title>LoginComponent</title>
<polygon fill="#ffffb3" stroke="black" points="353.28,-84.8 238.72,-84.8 238.72,-48.8 353.28,-48.8 353.28,-84.8"/>
<text text-anchor="middle" x="296" y="-62.6" font-family="Times,serif" font-size="14.00">LoginComponent</text>
</g>
<!-- LoginComponent&#45;&gt;AppModule -->
<g id="edge3" class="edge">
<title>LoginComponent&#45;&gt;AppModule</title>
<path fill="none" stroke="black" d="M296,-84.82C296,-102.17 296,-125.8 296,-125.8 296,-125.8 413.98,-125.8 413.98,-125.8"/>
<polygon fill="black" stroke="black" points="413.98,-129.3 423.98,-125.8 413.98,-122.3 413.98,-129.3"/>
</g>
<!-- LoginHireCandidateComponent -->
<g id="node4" class="node">
<title>LoginHireCandidateComponent</title>
<polygon fill="#ffffb3" stroke="black" points="220.41,-84.8 23.59,-84.8 23.59,-48.8 220.41,-48.8 220.41,-84.8"/>
<text text-anchor="middle" x="122" y="-62.6" font-family="Times,serif" font-size="14.00">LoginHireCandidateComponent</text>
</g>
<!-- LoginHireCandidateComponent&#45;&gt;AppModule -->
<g id="edge4" class="edge">
<title>LoginHireCandidateComponent&#45;&gt;AppModule</title>
<path fill="none" stroke="black" d="M122,-85.08C122,-106.12 122,-137.8 122,-137.8 122,-137.8 414.16,-137.8 414.16,-137.8"/>
<polygon fill="black" stroke="black" points="414.16,-141.3 424.16,-137.8 414.16,-134.3 414.16,-141.3"/>
</g>
<!-- AppComponent  -->
<g id="node7" class="node">
<title>AppComponent </title>
<polygon fill="#80b1d3" stroke="black" points="520.44,-214.8 411.56,-214.8 411.56,-178.8 520.44,-178.8 520.44,-214.8"/>
<text text-anchor="middle" x="466" y="-192.6" font-family="Times,serif" font-size="14.00">AppComponent </text>
</g>
<!-- AppModule&#45;&gt;AppComponent  -->
<g id="edge6" class="edge">
<title>AppModule&#45;&gt;AppComponent </title>
<path fill="none" stroke="black" stroke-dasharray="1,5" d="M466,-149.91C466,-149.91 466,-168.79 466,-168.79"/>
<polygon fill="black" stroke="black" points="462.5,-168.79 466,-178.79 469.5,-168.79 462.5,-168.79"/>
</g>
<!-- AppRoutingModule -->
<g id="node6" class="node">
<title>AppRoutingModule</title>
<polygon fill="#8dd3c7" stroke="black" points="836.27,-84.8 833.27,-88.8 812.27,-88.8 809.27,-84.8 707.73,-84.8 707.73,-48.8 836.27,-48.8 836.27,-84.8"/>
<text text-anchor="middle" x="772" y="-62.6" font-family="Times,serif" font-size="14.00">AppRoutingModule</text>
</g>
<!-- AppRoutingModule&#45;&gt;AppModule -->
<g id="edge5" class="edge">
<title>AppRoutingModule&#45;&gt;AppModule</title>
<path fill="none" stroke="black" d="M772,-85.08C772,-106.12 772,-137.8 772,-137.8 772,-137.8 517.91,-137.8 517.91,-137.8"/>
<polygon fill="black" stroke="black" points="517.91,-134.3 507.91,-137.8 517.91,-141.3 517.91,-134.3"/>
</g>
</g>
</svg>
