<svg version="1.1" xmlns="http://www.w3.org/2000/svg" xmlns:xlink="http://www.w3.org/1999/xlink"
 width="161.20277404785156" height="42.33000183105469">
 <defs></defs><g transform="translate(-83.49996948242188,28.470001220703125)"><rect fill="black"
  stroke="none" x="0" y="0" width="161.20277404785156" height="42.33000183105469" fill-opacity="0" 
  transform="translate(83.49996948242188,-28.470001220703125)"></rect><g transform="translate(81.47997283935547,21.5)
   rotate(0,0,0) translate(-81.47997283935547,-21.5) matrix(1,0,0,1,81.47997283935547,21.5)"><path fill="rgb(237,0,0)" 
   fill-opacity="1" d="M30.14-49.97Q30.67-49.97 30.94-49.47Q31.20-48.96 31.25-48.44L31.25-48.44Q31.25-47.28 30.77-46.32L30.77-46.32Q30.19-44.93 29.16-43.88Q28.13-42.82 26.83-42.68L26.83-42.68Q24.43-42.34 23.47-42.20L23.47-42.20Q24.53-39.27 24.96-36.53L24.96-36.53Q25.54-33.32 25.58-32.31L25.58-32.31Q25.68-30.96 25.68-30.24L25.68-30.24Q25.68-29.57 25.58-28.13L25.58-28.13Q25.30-22.80 24.43-19.68L24.43-19.68Q23.71-17.09 22.94-15.60L22.94-15.60Q22.27-14.16 21.70-13.23Q21.12-12.29 20.35-11.57L20.35-11.57L19.01-10.32L18.10-9.80Q17.52-9.36 16.75-9.36L16.75-9.36Q16.46-9.27 16.27-9.27L16.27-9.27Q14.40-9.36 12.82-10.13L12.82-10.13Q11.57-10.80 10.46-11.69Q9.36-12.58 7.78-14.02L7.78-14.02L2.64-18.63Q2.02-19.20 2.02-20.21L2.02-20.21Q2.02-21.60 3.17-23.38L3.17-23.38Q4.37-25.20 5.76-25.78L5.76-25.78Q6.14-25.97 6.53-25.97L6.53-25.97Q6.96-25.97 7.30-25.78L7.30-25.78L11.04-22.23L12.19-21.17Q14.02-19.49 15.34-18.48Q16.66-17.48 18.19-16.90L18.19-16.90Q18.29-16.85 18.48-16.85L18.48-16.85Q18.77-17.52 18.86-17.91L18.86-17.91Q19.39-19.64 19.87-23.19L19.87-23.19Q20.11-25.49 20.11-27.36L20.11-27.36Q20.11-28.47 20.06-29.00L20.06-29.00L19.97-30.00Q19.68-32.98 19.39-34.52L19.39-34.52Q18.72-37.68 17.38-40.18L17.38-40.18Q17.18-40.52 17.18-41.09L17.18-41.09L16.51-41.00Q12.29-39.94 10.18-39.36L10.18-39.36Q10.03-39.32 9.86-39.27Q9.70-39.22 9.46-39.22L9.46-39.22Q8.83-39.22 8.50-39.84L8.50-39.84Q8.35-40.28 8.35-40.71L8.35-40.71Q8.35-40.95 8.45-41.43L8.45-41.43Q8.74-42.96 9.98-44.31L9.98-44.31Q10.66-45.03 11.52-45.41L11.52-45.41Q14.59-46.28 16.13-46.76L16.13-46.76Q17.18-47.09 17.52-47.14L17.52-47.14Q19.25-47.67 20.30-47.91L20.30-47.91Q25.15-49.01 29.95-49.92L29.95-49.92L30.14-49.97ZM45.46-20.45Q46.56-23.04 46.56-25.78L46.56-25.78Q46.56-27.94 45.82-29.74Q45.07-31.54 43.49-32.69L43.49-32.69Q42.43-33.46 41.47-33.46L41.47-33.46Q41.09-33.46 40.51-33.27L40.51-33.27Q40.94-33.08 40.94-32.60L40.94-32.60Q40.94-32.31 40.75-31.92L40.75-31.92Q39.65-29.81 39.02-27.34Q38.40-24.87 38.40-22.37L38.40-22.37Q38.40-19.49 39.26-16.90L39.26-16.90Q39.84-15.46 40.46-14.64L40.46-14.64Q40.75-14.31 41.04-14.16L41.04-14.16Q42.43-15.12 43.56-16.85Q44.69-18.58 45.46-20.45L45.46-20.45ZM44.78-37.30Q47.14-36.82 48.82-35.24Q50.50-33.65 51.36-31.42Q52.22-29.19 52.22-26.79L52.22-26.79Q52.22-23.96 51.12-20.98Q50.02-18.00 48.10-15.51Q46.18-13.01 43.82-11.57L43.82-11.57Q41.62-10.23 39.50-10.23L39.50-10.23Q37.39-10.23 35.81-11.52Q34.22-12.82 33.50-15.27L33.50-15.27Q32.69-17.76 32.69-20.88L32.69-20.88Q32.69-22.76 32.98-24.53L32.98-24.53Q32.64-24.44 31.97-24.44L31.97-24.44Q30.34-24.44 30.34-25.54L30.34-25.54Q30.34-25.92 30.43-26.16L30.43-26.16Q32.06-30.72 35.35-34.11Q38.64-37.49 42.91-37.49L42.91-37.49Q43.54-37.49 44.78-37.30L44.78-37.30ZM66.72-20.21Q66.72-20.93 66.29-21.58Q65.86-22.23 65.14-22.61L65.14-22.61Q64.22-23.09 63.12-23.09L63.12-23.09Q62.64-23.09 61.58-22.90L61.58-22.90Q61.25-19.30 61.10-14.79L61.10-14.79Q63.46-15.94 65.09-17.40Q66.72-18.87 66.72-20.21L66.72-20.21ZM68.93-26.31Q70.46-25.73 71.45-24.46Q72.43-23.19 72.43-21.65L72.43-21.65Q72.43-20.69 72.05-19.78L72.05-19.78Q71.18-17.81 69.26-16.18Q67.34-14.55 64.70-13.01L64.70-13.01Q59.09-9.70 54.82-9.51L54.82-9.51Q54.05-9.46 53.52-9.84Q52.99-10.23 52.99-10.85L52.99-10.85Q52.99-11.57 53.57-12.15Q54.14-12.72 55.06-13.11L55.06-13.11L55.06-13.25Q55.06-22.71 57.17-32.31L57.17-32.31Q57.36-33.27 58.85-34.01Q60.34-34.76 61.68-34.76L61.68-34.76Q62.45-34.76 62.86-34.44Q63.26-34.13 63.12-33.51L63.12-33.51Q62.59-31.25 62.21-28.56L62.21-28.56Q63.98-29.52 65.16-30.96Q66.34-32.40 66.34-34.04L66.34-34.04Q66.34-36.29 63.02-36.29L63.02-36.29Q61.20-36.29 59.62-35.72L59.62-35.72Q58.61-35.38 57.84-35.38L57.84-35.38Q56.35-35.38 56.35-36.48L56.35-36.48Q56.35-37.49 58.08-38.40L58.08-38.40Q59.57-39.17 61.68-39.68Q63.79-40.18 65.81-40.18L65.81-40.18Q68.59-40.18 70.30-39.05Q72.00-37.92 72.00-35.43L72.00-35.43Q72.00-33.08 70.37-30.84Q68.74-28.61 66.19-26.88L66.19-26.88Q67.63-26.79 68.93-26.31L68.93-26.31ZM95.71-48.44Q96.43-49.01 97.30-49.16L97.30-49.16L97.44-49.16Q98.21-49.16 98.45-48.48L98.45-48.48Q98.74-47.96 98.83-47.04L98.83-47.04Q98.93-46.56 98.93-46.37L98.93-46.37Q99.60-44.02 100.15-42.27Q100.70-40.52 101.09-39.32L101.09-39.32Q101.47-38.02 102.29-35.40Q103.10-32.79 103.68-30.77L103.68-30.77Q103.87-30.15 103.92-29.96L103.92-29.96Q103.92-31.30 103.82-33.99L103.82-33.99L103.78-36.00L103.73-37.25Q103.68-39.22 103.56-40.52Q103.44-41.81 103.10-43.06L103.10-43.06Q103.10-44.31 103.49-45.27L103.49-45.27L104.06-46.52Q104.59-47.52 105.65-48.53L105.65-48.53Q106.42-49.20 107.33-49.35L107.33-49.35Q108.14-49.35 108.58-48.63L108.58-48.63Q109.30-46.76 109.39-44.55L109.39-44.55Q109.39-43.20 109.44-42.58L109.44-42.58Q109.44-40.08 109.49-38.88L109.49-38.88Q109.49-36.24 109.39-31.06L109.39-31.06Q109.39-28.42 109.10-23.24L109.10-23.24L109.06-22.23Q109.01-21.70 108.94-20.40Q108.86-19.11 108.72-18.10L108.72-18.10Q108.29-14.88 107.66-13.01L107.66-13.01Q107.14-11.62 106.70-10.85L106.70-10.85Q106.22-9.94 105.07-8.88L105.07-8.88Q104.26-8.16 103.49-8.16L103.49-8.16Q103.20-8.16 102.91-8.31L102.91-8.31Q102.14-8.69 101.62-10.32L101.62-10.32Q101.18-11.67 100.75-13.49L100.75-13.49Q100.46-14.84 100.37-15.51L100.37-15.51Q99.84-18.20 99.60-19.16L99.60-19.16Q99.07-21.84 97.82-27.12L97.82-27.12Q96.24-17.33 92.93-10.90L92.93-10.90Q92.59-10.18 91.99-9.56Q91.39-8.93 90.77-8.64L90.77-8.64Q90.43-8.45 90.00-8.45L90.00-8.45Q89.62-8.45 89.42-8.55L89.42-8.55Q88.80-8.98 88.80-10.04L88.80-10.04Q88.80-10.47 88.85-10.66L88.85-10.66Q89.09-11.86 89.62-12.77L89.62-12.77L89.71-12.96Q90.58-14.93 91.25-17.28L91.25-17.28Q92.02-20.50 92.45-23.91Q92.88-27.32 93.22-31.68L93.22-31.68Q93.31-34.08 93.31-35.19L93.31-35.19L93.26-37.68Q93.26-38.55 93.22-39.03L93.22-39.03Q93.22-39.36 93.19-39.87Q93.17-40.37 93.22-41.04L93.22-41.04Q93.22-42.68 93.29-43.61Q93.36-44.55 93.70-45.41L93.70-45.41Q94.46-47.38 95.71-48.44L95.71-48.44ZM126.24-20.45Q127.34-23.04 127.34-25.78L127.34-25.78Q127.34-27.94 126.60-29.74Q125.86-31.54 124.27-32.69L124.27-32.69Q123.22-33.46 122.26-33.46L122.26-33.46Q121.87-33.46 121.30-33.27L121.30-33.27Q121.73-33.08 121.73-32.60L121.73-32.60Q121.73-32.31 121.54-31.92L121.54-31.92Q120.43-29.81 119.81-27.34Q119.18-24.87 119.18-22.37L119.18-22.37Q119.18-19.49 120.05-16.90L120.05-16.90Q120.62-15.46 121.25-14.64L121.25-14.64Q121.54-14.31 121.82-14.16L121.82-14.16Q123.22-15.12 124.34-16.85Q125.47-18.58 126.24-20.45L126.24-20.45ZM125.57-37.30Q127.92-36.82 129.60-35.24Q131.28-33.65 132.14-31.42Q133.01-29.19 133.01-26.79L133.01-26.79Q133.01-23.96 131.90-20.98Q130.80-18.00 128.88-15.51Q126.96-13.01 124.61-11.57L124.61-11.57Q122.40-10.23 120.29-10.23L120.29-10.23Q118.18-10.23 116.59-11.52Q115.01-12.82 114.29-15.27L114.29-15.27Q113.47-17.76 113.47-20.88L113.47-20.88Q113.47-22.76 113.76-24.53L113.76-24.53Q113.42-24.44 112.75-24.44L112.75-24.44Q111.12-24.44 111.12-25.54L111.12-25.54Q111.12-25.92 111.22-26.16L111.22-26.16Q112.85-30.72 116.14-34.11Q119.42-37.49 123.70-37.49L123.70-37.49Q124.32-37.49 125.57-37.30L125.57-37.30ZM157.15-39.32Q157.30-40.23 158.74-40.23L158.74-40.23Q159.70-40.23 160.80-39.80Q161.90-39.36 162.62-38.62Q163.34-37.88 163.20-37.11L163.20-37.11Q160.99-22.08 155.28-9.27L155.28-9.27Q154.90-8.40 153.60-8.40L153.60-8.40Q152.78-8.40 151.68-8.74L151.68-8.74Q148.75-9.65 147.67-12.22Q146.59-14.79 146.35-18.53L146.35-18.53L146.26-19.73Q144.53-16.08 141.36-8.60L141.36-8.60Q140.93-7.64 139.58-7.64L139.58-7.64Q138.62-7.64 137.57-8.12Q136.51-8.60 135.86-9.32Q135.22-10.04 135.31-10.80L135.31-10.80Q135.94-14.93 135.94-20.45L135.94-20.45Q135.94-23.00 135.74-27.99L135.74-27.99Q135.55-32.98 135.55-35.43L135.55-35.43L135.60-37.64Q135.65-38.31 136.15-38.64Q136.66-38.98 137.47-38.98L137.47-38.98Q138.91-38.98 140.35-38.19Q141.79-37.40 141.74-36.39L141.74-36.39L141.70-33.84Q141.70-31.01 141.89-25.35L141.89-25.35Q143.95-29.57 146.40-33.65L146.40-33.65Q146.93-34.52 148.37-34.52L148.37-34.52Q149.76-34.52 151.08-33.75Q152.40-32.98 152.45-31.92L152.45-31.92Q152.50-31.20 152.50-29.72L152.50-29.72Q152.50-28.42 152.40-25.83L152.40-25.83Q152.30-22.61 152.35-21.03L152.35-21.03L152.35-19.44Q155.71-29.24 157.15-39.32L157.15-39.32Z"></path></g></g></svg>