<?xml version="1.0" encoding="UTF-8" standalone="no"?>
<!DOCTYPE svg PUBLIC "-//W3C//DTD SVG 1.1//EN"
 "http://www.w3.org/Graphics/SVG/1.1/DTD/svg11.dtd">
<!-- Generated by graphviz version 2.47.3 (20210619.1520)
 -->
<!-- Title: dependencies Pages: 1 -->
<svg width="868pt" height="247pt"
 viewBox="0.00 0.00 868.00 246.80" xmlns="http://www.w3.org/2000/svg" xmlns:xlink="http://www.w3.org/1999/xlink">
<g id="graph0" class="graph" transform="scale(1 1) rotate(0) translate(4 242.8)">
<title>dependencies</title>
<polygon fill="white" stroke="transparent" points="-4,4 -4,-242.8 864,-242.8 864,4 -4,4"/>
<text text-anchor="middle" x="430" y="-8.2" font-family="sans-serif" font-size="14.00">dependencies</text>
<g id="clust1" class="cluster">
<title>cluster_AppModule</title>
<polygon fill="none" stroke="black" stroke-dasharray="1,5" points="8,-32.8 8,-230.8 852,-230.8 852,-32.8 8,-32.8"/>
</g>
<g id="clust2" class="cluster">
<title>cluster_AppModule_declarations</title>
<polygon fill="none" stroke="black" points="168,-40.8 168,-92.8 844,-92.8 844,-40.8 168,-40.8"/>
</g>
<g id="clust7" class="cluster">
<title>cluster_AppModule_imports</title>
<polygon fill="none" stroke="black" points="16,-40.8 16,-92.8 160,-92.8 160,-40.8 16,-40.8"/>
</g>
<g id="clust9" class="cluster">
<title>cluster_AppModule_bootstrap</title>
<polygon fill="none" stroke="black" points="386,-170.8 386,-222.8 510,-222.8 510,-170.8 386,-170.8"/>
</g>
<!-- AppComponent -->
<g id="node1" class="node">
<title>AppComponent</title>
<polygon fill="#ffffb3" stroke="black" points="835.94,-84.8 730.06,-84.8 730.06,-48.8 835.94,-48.8 835.94,-84.8"/>
<text text-anchor="middle" x="783" y="-62.6" font-family="Times,serif" font-size="14.00">AppComponent</text>
</g>
<!-- AppModule -->
<g id="node5" class="node">
<title>AppModule</title>
<polygon fill="#8dd3c7" stroke="black" points="489.66,-149.8 486.66,-153.8 465.66,-153.8 462.66,-149.8 406.34,-149.8 406.34,-113.8 489.66,-113.8 489.66,-149.8"/>
<text text-anchor="middle" x="448" y="-127.6" font-family="Times,serif" font-size="14.00">AppModule</text>
</g>
<!-- AppComponent&#45;&gt;AppModule -->
<g id="edge1" class="edge">
<title>AppComponent&#45;&gt;AppModule</title>
<path fill="none" stroke="black" d="M783,-85.08C783,-106.12 783,-137.8 783,-137.8 783,-137.8 499.75,-137.8 499.75,-137.8"/>
<polygon fill="black" stroke="black" points="499.75,-134.3 489.75,-137.8 499.75,-141.3 499.75,-134.3"/>
</g>
<!-- LoginApplyForJobComponent -->
<g id="node2" class="node">
<title>LoginApplyForJobComponent</title>
<polygon fill="#ffffb3" stroke="black" points="712.16,-84.8 523.84,-84.8 523.84,-48.8 712.16,-48.8 712.16,-84.8"/>
<text text-anchor="middle" x="618" y="-62.6" font-family="Times,serif" font-size="14.00">LoginApplyForJobComponent</text>
</g>
<!-- LoginApplyForJobComponent&#45;&gt;AppModule -->
<g id="edge2" class="edge">
<title>LoginApplyForJobComponent&#45;&gt;AppModule</title>
<path fill="none" stroke="black" d="M618,-84.82C618,-102.17 618,-125.8 618,-125.8 618,-125.8 500.02,-125.8 500.02,-125.8"/>
<polygon fill="black" stroke="black" points="500.02,-122.3 490.02,-125.8 500.02,-129.3 500.02,-122.3"/>
</g>
<!-- LoginComponent -->
<g id="node3" class="node">
<title>LoginComponent</title>
<polygon fill="#ffffb3" stroke="black" points="505.28,-84.8 390.72,-84.8 390.72,-48.8 505.28,-48.8 505.28,-84.8"/>
<text text-anchor="middle" x="448" y="-62.6" font-family="Times,serif" font-size="14.00">LoginComponent</text>
</g>
<!-- LoginComponent&#45;&gt;AppModule -->
<g id="edge3" class="edge">
<title>LoginComponent&#45;&gt;AppModule</title>
<path fill="none" stroke="black" d="M448,-84.91C448,-84.91 448,-103.79 448,-103.79"/>
<polygon fill="black" stroke="black" points="444.5,-103.79 448,-113.79 451.5,-103.79 444.5,-103.79"/>
</g>
<!-- LoginHireCandidateComponent -->
<g id="node4" class="node">
<title>LoginHireCandidateComponent</title>
<polygon fill="#ffffb3" stroke="black" points="372.41,-84.8 175.59,-84.8 175.59,-48.8 372.41,-48.8 372.41,-84.8"/>
<text text-anchor="middle" x="274" y="-62.6" font-family="Times,serif" font-size="14.00">LoginHireCandidateComponent</text>
</g>
<!-- LoginHireCandidateComponent&#45;&gt;AppModule -->
<g id="edge4" class="edge">
<title>LoginHireCandidateComponent&#45;&gt;AppModule</title>
<path fill="none" stroke="black" d="M274,-84.82C274,-102.17 274,-125.8 274,-125.8 274,-125.8 396.32,-125.8 396.32,-125.8"/>
<polygon fill="black" stroke="black" points="396.32,-129.3 406.32,-125.8 396.32,-122.3 396.32,-129.3"/>
</g>
<!-- AppComponent  -->
<g id="node7" class="node">
<title>AppComponent </title>
<polygon fill="#80b1d3" stroke="black" points="502.44,-214.8 393.56,-214.8 393.56,-178.8 502.44,-178.8 502.44,-214.8"/>
<text text-anchor="middle" x="448" y="-192.6" font-family="Times,serif" font-size="14.00">AppComponent </text>
</g>
<!-- AppModule&#45;&gt;AppComponent  -->
<g id="edge6" class="edge">
<title>AppModule&#45;&gt;AppComponent </title>
<path fill="none" stroke="black" stroke-dasharray="1,5" d="M448,-149.91C448,-149.91 448,-168.79 448,-168.79"/>
<polygon fill="black" stroke="black" points="444.5,-168.79 448,-178.79 451.5,-168.79 444.5,-168.79"/>
</g>
<!-- AppRoutingModule -->
<g id="node6" class="node">
<title>AppRoutingModule</title>
<polygon fill="#8dd3c7" stroke="black" points="152.27,-84.8 149.27,-88.8 128.27,-88.8 125.27,-84.8 23.73,-84.8 23.73,-48.8 152.27,-48.8 152.27,-84.8"/>
<text text-anchor="middle" x="88" y="-62.6" font-family="Times,serif" font-size="14.00">AppRoutingModule</text>
</g>
<!-- AppRoutingModule&#45;&gt;AppModule -->
<g id="edge5" class="edge">
<title>AppRoutingModule&#45;&gt;AppModule</title>
<path fill="none" stroke="black" d="M88,-85.08C88,-106.12 88,-137.8 88,-137.8 88,-137.8 396,-137.8 396,-137.8"/>
<polygon fill="black" stroke="black" points="396,-141.3 406,-137.8 396,-134.3 396,-141.3"/>
</g>
</g>
</svg>
